<svg height="512pt" viewBox="0 -65 512.00112 512" width="512pt" xmlns="http://www.w3.org/2000/svg"><path d="m131.386719 40.71875-16.21875 7.929688-7.554688-15.460938c-1.054687-2.152344-.160156-4.75 1.992188-5.804688l8.421875-4.117187c2.152344-1.050781 4.75-.160156 5.800781 1.992187zm0 0" fill="#fa503c"/><path d="m254.578125 40.105469-43.59375 21.308593c-3.550781 1.734376-7.839844.261719-9.578125-3.289062l-12.957031-26.511719c-1.734375-3.550781-.261719-7.839843 3.289062-9.574219l43.597657-21.308593c3.550781-1.738281 7.839843-.265625 9.574218 3.285156l12.957032 26.511719c1.738281 3.554687.265624 7.839844-3.289063 9.578125zm0 0" fill="#415050"/><path d="m209.601562 68.507812-44.015624 21.515626c-3.4375 1.679687-7.582032.253906-9.265626-3.179688l-18.226562-37.296875c-1.679688-3.4375-.257812-7.582031 3.179688-9.261719l44.015624-21.515625c3.4375-1.679687 7.582032-.253906 9.265626 3.183594l18.226562 37.292969c1.679688 3.4375.253906 7.582031-3.179688 9.261718zm0 0" fill="#55696e"/><path d="m435.648438 361.191406-102.410157-69.328125-95.875 22.191407c-14.082031 3.261718-28.132812-5.511719-31.390625-19.589844-3.257812-14.078125 5.511719-28.132813 19.589844-31.390625l106.992188-24.765625c7.089843-1.640625 14.539062-.253906 20.566406 3.824218l111.863281 75.722657c11.964844 8.101562 15.101563 24.371093 7 36.335937-8.101563 11.96875-24.367187 15.101563-36.335937 7zm0 0" fill="#414b82"/><path d="m480.871094 382.480469-165.972656-32.039063-108.875 22.199219c-14.152344 2.886719-27.976563-6.25-30.863282-20.410156-2.886718-14.160157 6.25-27.976563 20.410156-30.863281l113.960938-23.234376c3.359375-.6875 6.824219-.703124 10.1875-.054687l171.070312 33.023437c14.1875 2.738282 23.472657 16.460938 20.734376 30.648438-2.738282 14.167969-16.449219 23.476562-30.652344 20.730469zm0 0" fill="#5f6e9b"/><path d="m187.507812 94.996094-43.910156 21.460937c-5.695312 2.785157-12.566406.421875-15.347656-5.269531l-26.609375-54.445312c-2.785156-5.691407-.425781-12.5625 5.269531-15.34375l43.910156-21.464844c5.691407-2.78125 12.5625-.421875 15.34375 5.269531l26.613282 54.445313c2.78125 5.691406.421875 12.5625-5.269532 15.347656zm0 0" fill="#3c4646"/><path d="m269.730469 278.265625-82.449219 91.265625-123.769531-111.8125c-13.320313-12.035156-14.363281-32.59375-2.328125-45.917969l38.863281-43.015625c12.035156-13.324218 32.59375-14.367187 45.914063-2.332031zm0 0" fill="#64afff"/><path d="m96.25 126.320312c0 26.578126-21.546875 48.125-48.125 48.125s-48.125-21.546874-48.125-48.125c0-26.578124 21.546875-48.125 48.125-48.125s48.125 21.546876 48.125 48.125zm0 0" fill="#ffab8f"/><path d="m83.082031 214.875c-3.617187-13.480469 4.375-27.339844 17.855469-30.960938l59.535156-15.984374-40.976562-57.75c-8.074219-11.382813-5.394532-27.160157 5.984375-35.234376 11.382812-8.078124 27.160156-5.398437 35.234375 5.984376l61.992187 87.363281c10.171875 14.335937 2.933594 34.46875-14.058593 39.03125l-94.609376 25.402343c-13.390624 3.597657-27.3125-4.285156-30.957031-17.851562zm0 0" fill="#ffab8f"/><path d="m146.765625 171.609375-45.828125 12.304687c-13.480469 3.621094-21.472656 17.480469-17.855469 30.960938 3.644531 13.566406 17.566407 21.449219 30.960938 17.851562 5.246093-1.40625 42.707031-11.464843 47.222656-12.675781zm0 0" fill="#4699f2"/></svg>